<svg width="142" height="47" viewBox="0 0 142 47" fill="none" xmlns="http://www.w3.org/2000/svg">
<path d="M60.1501 15.9408C61.7168 15.9408 63.0913 16.247 64.2735 16.8595C65.4699 17.4719 66.3886 18.3479 67.0295 19.4873C67.6847 20.6125 68.0123 21.9229 68.0123 23.4184C68.0123 24.914 67.6847 26.2244 67.0295 27.3496C66.3886 28.4605 65.4699 29.3222 64.2735 29.9347C63.0913 30.5472 61.7168 30.8534 60.1501 30.8534H54.9371V15.9408H60.1501ZM60.0432 28.311C61.61 28.311 62.8207 27.8837 63.6753 27.0291C64.5299 26.1745 64.9572 24.971 64.9572 23.4184C64.9572 21.8659 64.5299 20.6553 63.6753 19.7864C62.8207 18.9034 61.61 18.4618 60.0432 18.4618H57.9281V28.311H60.0432ZM71.7682 17.6072C71.2412 17.6072 70.7996 17.4434 70.4436 17.1158C70.1017 16.774 69.9308 16.3538 69.9308 15.8553C69.9308 15.3568 70.1017 14.9437 70.4436 14.6161C70.7996 14.2743 71.2412 14.1034 71.7682 14.1034C72.2952 14.1034 72.7296 14.2743 73.0714 14.6161C73.4275 14.9437 73.6056 15.3568 73.6056 15.8553C73.6056 16.3538 73.4275 16.774 73.0714 17.1158C72.7296 17.4434 72.2952 17.6072 71.7682 17.6072ZM73.2424 19.0173V30.8534H70.2513V19.0173H73.2424ZM81.1328 28.0973L84.1239 19.0173H87.3072L82.9274 30.8534H79.2954L74.937 19.0173H78.1417L81.1328 28.0973ZM99.9901 24.679C99.9901 25.1063 99.9616 25.4908 99.9046 25.8327H91.2519C91.3231 26.6873 91.6222 27.3567 92.1492 27.841C92.6762 28.3252 93.3243 28.5674 94.0934 28.5674C95.2044 28.5674 95.9949 28.0902 96.4649 27.1359H99.691C99.3491 28.2754 98.6939 29.2154 97.7254 29.9561C96.7569 30.6825 95.5676 31.0457 94.1575 31.0457C93.018 31.0457 91.9925 30.7964 91.081 30.2979C90.1836 29.7852 89.4786 29.0659 88.9658 28.1401C88.4673 27.2143 88.2181 26.146 88.2181 24.9353C88.2181 23.7104 88.4673 22.6351 88.9658 21.7093C89.4644 20.7835 90.1623 20.0713 91.0596 19.5728C91.9569 19.0743 92.9895 18.825 94.1575 18.825C95.2827 18.825 96.2868 19.0671 97.1699 19.5514C98.0672 20.0357 98.758 20.7265 99.2423 21.6238C99.7408 22.5069 99.9901 23.5253 99.9901 24.679ZM96.8922 23.8244C96.8779 23.0552 96.6002 22.4428 96.059 21.987C95.5177 21.517 94.8554 21.282 94.072 21.282C93.3314 21.282 92.7047 21.5099 92.1919 21.9656C91.6934 22.4072 91.3872 23.0268 91.2732 23.8244H96.8922ZM107.322 31.0029C106.282 31.0029 105.342 30.8249 104.502 30.4688C103.676 30.1127 103.021 29.6 102.536 28.9306C102.052 28.2611 101.803 27.4706 101.789 26.5591H104.993C105.036 27.1715 105.25 27.6558 105.634 28.0119C106.033 28.368 106.574 28.546 107.258 28.546C107.956 28.546 108.504 28.3822 108.903 28.0546C109.302 27.7128 109.501 27.2712 109.501 26.73C109.501 26.2884 109.366 25.9252 109.095 25.6404C108.825 25.3555 108.483 25.1347 108.07 24.9781C107.671 24.8072 107.116 24.622 106.404 24.4226C105.435 24.1377 104.644 23.86 104.032 23.5894C103.434 23.3045 102.914 22.8843 102.472 22.3288C102.045 21.7591 101.831 21.0042 101.831 20.0642C101.831 19.1811 102.052 18.412 102.494 17.7568C102.935 17.1016 103.555 16.6031 104.352 16.2612C105.15 15.9052 106.062 15.7271 107.087 15.7271C108.625 15.7271 109.872 16.1046 110.826 16.8595C111.795 17.6001 112.329 18.6399 112.428 19.9787H109.138C109.11 19.466 108.889 19.0458 108.476 18.7182C108.077 18.3764 107.543 18.2054 106.874 18.2054C106.29 18.2054 105.82 18.355 105.463 18.6541C105.122 18.9532 104.951 19.3876 104.951 19.9573C104.951 20.3562 105.079 20.6909 105.335 20.9615C105.606 21.2179 105.933 21.4315 106.318 21.6024C106.717 21.7591 107.272 21.9443 107.985 22.1579C108.953 22.4428 109.744 22.7276 110.356 23.0125C110.968 23.2974 111.495 23.7247 111.937 24.2944C112.379 24.8641 112.599 25.6119 112.599 26.5377C112.599 27.3353 112.393 28.076 111.98 28.7596C111.567 29.4433 110.961 29.9917 110.164 30.4047C109.366 30.8035 108.419 31.0029 107.322 31.0029ZM126.195 24.679C126.195 25.1063 126.167 25.4908 126.11 25.8327H117.457C117.528 26.6873 117.827 27.3567 118.354 27.841C118.881 28.3252 119.53 28.5674 120.299 28.5674C121.41 28.5674 122.2 28.0902 122.67 27.1359H125.896C125.554 28.2754 124.899 29.2154 123.931 29.9561C122.962 30.6825 121.773 31.0457 120.363 31.0457C119.223 31.0457 118.198 30.7964 117.286 30.2979C116.389 29.7852 115.684 29.0659 115.171 28.1401C114.673 27.2143 114.423 26.146 114.423 24.9353C114.423 23.7104 114.673 22.6351 115.171 21.7093C115.67 20.7835 116.368 20.0713 117.265 19.5728C118.162 19.0743 119.195 18.825 120.363 18.825C121.488 18.825 122.492 19.0671 123.375 19.5514C124.273 20.0357 124.963 20.7265 125.448 21.6238C125.946 22.5069 126.195 23.5253 126.195 24.679ZM123.097 23.8244C123.083 23.0552 122.805 22.4428 122.264 21.987C121.723 21.517 121.061 21.282 120.277 21.282C119.537 21.282 118.91 21.5099 118.397 21.9656C117.899 22.4072 117.592 23.0268 117.478 23.8244H123.097ZM127.609 24.8926C127.609 23.6962 127.844 22.6351 128.314 21.7093C128.799 20.7835 129.447 20.0713 130.259 19.5728C131.085 19.0743 132.003 18.825 133.015 18.825C133.898 18.825 134.667 19.0031 135.322 19.3591C135.992 19.7152 136.526 20.1639 136.924 20.7051V19.0173H139.937V30.8534H136.924V29.1228C136.54 29.6783 136.006 30.1412 135.322 30.5116C134.653 30.8676 133.876 31.0457 132.993 31.0457C131.996 31.0457 131.085 30.7893 130.259 30.2765C129.447 29.7638 128.799 29.0445 128.314 28.1187C127.844 27.1786 127.609 26.1033 127.609 24.8926ZM136.924 24.9353C136.924 24.2089 136.782 23.5894 136.497 23.0766C136.212 22.5496 135.828 22.1508 135.343 21.8802C134.859 21.5953 134.339 21.4529 133.784 21.4529C133.228 21.4529 132.716 21.5882 132.246 21.8588C131.776 22.1294 131.391 22.5282 131.092 23.0552C130.807 23.568 130.665 24.1805 130.665 24.8926C130.665 25.6048 130.807 26.2315 131.092 26.7727C131.391 27.2997 131.776 27.7056 132.246 27.9905C132.73 28.2754 133.243 28.4178 133.784 28.4178C134.339 28.4178 134.859 28.2825 135.343 28.0119C135.828 27.727 136.212 27.3282 136.497 26.8154C136.782 26.2884 136.924 25.6617 136.924 24.9353Z" fill="black"/>
<path d="M41.0923 31.6358C39.3906 31.6358 38.6364 30.9783 37.5729 30.0501C36.3933 29.0445 34.9236 27.7682 32.1583 27.7682C29.3737 27.7682 27.9233 29.0445 26.7437 30.0501C25.6801 30.9783 24.9066 31.6358 23.2049 31.6358C21.5225 31.6358 20.749 30.9783 19.6854 30.0501C18.5058 29.0445 17.0362 27.7682 14.2709 27.7682C11.4863 27.7682 10.0166 29.0445 8.837 30.0501C7.77343 30.9783 7.01924 31.6358 5.31752 31.6358C4.52467 31.6358 3.86719 32.2933 3.86719 33.0861C3.86719 33.8983 4.52467 34.5365 5.31752 34.5365C8.10215 34.5365 9.55246 33.2795 10.7321 32.2546C11.7956 31.3264 12.5692 30.6689 14.2709 30.6689C15.9726 30.6689 16.7268 31.3264 17.7904 32.2546C18.97 33.2795 20.4396 34.5365 23.2049 34.5365C25.9896 34.5365 27.4592 33.2795 28.6388 32.2546C29.7024 31.3264 30.4566 30.6689 32.1583 30.6689C33.8407 30.6689 34.6142 31.3264 35.6778 32.2546C36.8574 33.2795 38.327 34.5365 41.0923 34.5365C41.8852 34.5365 42.5427 33.8983 42.5427 33.0861C42.5427 32.2933 41.8852 31.6358 41.0923 31.6358Z" fill="black"/>
<path d="M41.0923 23.6702C39.3906 23.6702 38.6364 22.9933 37.5729 22.0845C36.3933 21.0596 34.9236 19.8026 32.1583 19.8026C29.3737 19.8026 27.9233 21.0596 26.7437 22.0845C25.6801 22.9933 24.9066 23.6702 23.2049 23.6702C21.5225 23.6702 20.749 22.9933 19.6854 22.0845C18.5058 21.0596 17.0362 19.8026 14.2709 19.8026C11.4863 19.8026 10.0166 21.0596 8.837 22.0845C7.77343 22.9933 7.01924 23.6702 5.31752 23.6702C4.52467 23.6702 3.86719 24.3083 3.86719 25.1205C3.86719 25.9133 4.52467 26.5708 5.31752 26.5708C8.10215 26.5708 9.55246 25.2945 10.7321 24.2696C11.7956 23.3608 12.5692 22.7033 14.2709 22.7033C15.9726 22.7033 16.7268 23.3608 17.7904 24.2696C18.97 25.2945 20.4396 26.5708 23.2049 26.5708C25.9896 26.5708 27.4592 25.2945 28.6388 24.2696C29.7024 23.3608 30.4566 22.7033 32.1583 22.7033C33.8407 22.7033 34.6142 23.3608 35.6778 24.2696C36.8574 25.2945 38.327 26.5708 41.0923 26.5708C41.8852 26.5708 42.5427 25.9133 42.5427 25.1205C42.5427 24.3083 41.8852 23.6702 41.0923 23.6702Z" fill="black"/>
<path d="M5.31752 18.6414C8.10215 18.6414 9.55246 17.3651 10.7321 16.3595C11.7956 15.4313 12.5692 14.7738 14.2709 14.7738C15.9726 14.7738 16.7268 15.4313 17.7904 16.3595C18.97 17.3651 20.4396 18.6414 23.2049 18.6414C25.9896 18.6414 27.4592 17.3651 28.6388 16.3595C29.7024 15.4313 30.4566 14.7738 32.1583 14.7738C33.8407 14.7738 34.6142 15.4313 35.6778 16.3595C36.8574 17.3651 38.327 18.6414 41.0923 18.6414C41.8852 18.6414 42.5427 17.9839 42.5427 17.191C42.5427 16.3789 41.8852 15.7407 41.0923 15.7407C39.3906 15.7407 38.6364 15.0832 37.5728 14.155C36.3932 13.1301 34.9236 11.8732 32.1583 11.8732C29.3737 11.8732 27.9233 13.1301 26.7437 14.155C25.6801 15.0832 24.9066 15.7407 23.2049 15.7407C21.5225 15.7407 20.749 15.0832 19.6854 14.155C18.5058 13.1301 17.0362 11.8732 14.2709 11.8732C11.4863 11.8732 10.0166 13.1301 8.837 14.155C7.77342 15.0832 7.01924 15.7407 5.31752 15.7407C4.52467 15.7407 3.86719 16.3789 3.86719 17.191C3.86719 17.9839 4.52467 18.6414 5.31752 18.6414Z" fill="black"/>
</svg>
