<svg width="199" height="65" viewBox="0 0 199 65" fill="none" xmlns="http://www.w3.org/2000/svg">
<path d="M84.2426 22.9134C86.4369 22.9134 88.3619 23.3423 90.0176 24.2001C91.6933 25.0579 92.98 26.2847 93.8776 27.8805C94.7952 29.4564 95.254 31.2917 95.254 33.3862C95.254 35.4808 94.7952 37.316 93.8776 38.8919C92.98 40.4479 91.6933 41.6548 90.0176 42.5125C88.3619 43.3703 86.4369 43.7992 84.2426 43.7992H76.9416V22.9134H84.2426ZM84.093 40.2384C86.2873 40.2384 87.9829 39.64 89.1798 38.4431C90.3767 37.2462 90.9752 35.5606 90.9752 33.3862C90.9752 31.2119 90.3767 29.5163 89.1798 28.2994C87.9829 27.0626 86.2873 26.4443 84.093 26.4443H81.1307V40.2384H84.093ZM100.514 25.2474C99.7762 25.2474 99.1578 25.018 98.6591 24.5591C98.1804 24.0804 97.941 23.4919 97.941 22.7937C97.941 22.0955 98.1804 21.517 98.6591 21.0582C99.1578 20.5795 99.7762 20.3401 100.514 20.3401C101.252 20.3401 101.861 20.5795 102.34 21.0582C102.838 21.517 103.088 22.0955 103.088 22.7937C103.088 23.4919 102.838 24.0804 102.34 24.5591C101.861 25.018 101.252 25.2474 100.514 25.2474ZM102.579 27.2222V43.7992H98.3898V27.2222H102.579ZM113.63 39.9392L117.819 27.2222H122.277L116.143 43.7992H111.057L104.952 27.2222H109.441L113.63 39.9392ZM140.04 35.1516C140.04 35.7501 140 36.2887 139.921 36.7675H127.802C127.902 37.9643 128.321 38.9019 129.059 39.5801C129.797 40.2584 130.705 40.5975 131.782 40.5975C133.338 40.5975 134.445 39.9292 135.103 38.5927H139.621C139.143 40.1886 138.225 41.5052 136.868 42.5425C135.512 43.5598 133.846 44.0685 131.871 44.0685C130.276 44.0685 128.839 43.7194 127.563 43.0212C126.306 42.3031 125.318 41.2957 124.6 39.9991C123.902 38.7024 123.553 37.2063 123.553 35.5107C123.553 33.7952 123.902 32.2891 124.6 30.9924C125.299 29.6958 126.276 28.6984 127.533 28.0002C128.789 27.302 130.236 26.9529 131.871 26.9529C133.447 26.9529 134.854 27.2921 136.091 27.9703C137.347 28.6485 138.315 29.616 138.993 30.8728C139.691 32.1095 140.04 33.5358 140.04 35.1516ZM135.702 33.9548C135.682 32.8776 135.293 32.0198 134.535 31.3814C133.777 30.7231 132.849 30.394 131.752 30.394C130.714 30.394 129.837 30.7132 129.119 31.3515C128.42 31.9699 127.992 32.8377 127.832 33.9548H135.702ZM150.309 44.0087C148.853 44.0087 147.536 43.7593 146.359 43.2606C145.202 42.7619 144.285 42.0438 143.607 41.1062C142.928 40.1686 142.579 39.0615 142.559 37.7848H147.048C147.108 38.6426 147.407 39.3208 147.945 39.8195C148.504 40.3182 149.262 40.5676 150.219 40.5676C151.197 40.5676 151.965 40.3382 152.523 39.8794C153.082 39.4006 153.361 38.7822 153.361 38.0242C153.361 37.4058 153.172 36.8971 152.793 36.4982C152.414 36.0992 151.935 35.79 151.357 35.5706C150.798 35.3312 150.02 35.0719 149.023 34.7926C147.666 34.3936 146.559 34.0046 145.701 33.6256C144.863 33.2266 144.135 32.6382 143.517 31.8602C142.918 31.0623 142.619 30.005 142.619 28.6884C142.619 27.4516 142.928 26.3744 143.547 25.4568C144.165 24.5392 145.033 23.841 146.15 23.3623C147.267 22.8636 148.544 22.6142 149.98 22.6142C152.134 22.6142 153.88 23.1428 155.216 24.2001C156.573 25.2374 157.321 26.6936 157.461 28.5687H152.853C152.813 27.8506 152.504 27.2621 151.925 26.8033C151.366 26.3246 150.618 26.0852 149.681 26.0852C148.863 26.0852 148.205 26.2946 147.706 26.7136C147.227 27.1325 146.988 27.7409 146.988 28.5388C146.988 29.0974 147.167 29.5661 147.526 29.9452C147.905 30.3042 148.364 30.6035 148.903 30.8428C149.461 31.0623 150.239 31.3216 151.237 31.6208C152.593 32.0198 153.7 32.4187 154.558 32.8177C155.416 33.2167 156.154 33.8151 156.772 34.613C157.391 35.411 157.7 36.4583 157.7 37.7549C157.7 38.872 157.411 39.9093 156.832 40.8668C156.254 41.8243 155.406 42.5923 154.289 43.1708C153.172 43.7294 151.845 44.0087 150.309 44.0087ZM176.742 35.1516C176.742 35.7501 176.702 36.2887 176.622 36.7675H164.504C164.603 37.9643 165.022 38.9019 165.76 39.5801C166.498 40.2584 167.406 40.5975 168.483 40.5975C170.039 40.5975 171.146 39.9292 171.805 38.5927H176.323C175.844 40.1886 174.927 41.5052 173.57 42.5425C172.214 43.5598 170.548 44.0685 168.573 44.0685C166.977 44.0685 165.541 43.7194 164.264 43.0212C163.008 42.3031 162.02 41.2957 161.302 39.9991C160.604 38.7024 160.255 37.2063 160.255 35.5107C160.255 33.7952 160.604 32.2891 161.302 30.9924C162 29.6958 162.978 28.6984 164.234 28.0002C165.491 27.302 166.937 26.9529 168.573 26.9529C170.149 26.9529 171.555 27.2921 172.792 27.9703C174.049 28.6485 175.016 29.616 175.695 30.8728C176.393 32.1095 176.742 33.5358 176.742 35.1516ZM172.403 33.9548C172.383 32.8776 171.994 32.0198 171.236 31.3814C170.478 30.7231 169.551 30.394 168.453 30.394C167.416 30.394 166.538 30.7132 165.82 31.3515C165.122 31.9699 164.693 32.8377 164.534 33.9548H172.403ZM178.722 35.4509C178.722 33.7752 179.051 32.2891 179.71 30.9924C180.388 29.6958 181.296 28.6984 182.433 28.0002C183.59 27.302 184.876 26.9529 186.293 26.9529C187.529 26.9529 188.607 27.2023 189.524 27.701C190.462 28.1997 191.21 28.8281 191.768 29.5861V27.2222H195.988V43.7992H191.768V41.3755C191.23 42.1535 190.482 42.8018 189.524 43.3204C188.587 43.8191 187.5 44.0685 186.263 44.0685C184.866 44.0685 183.59 43.7094 182.433 42.9913C181.296 42.2732 180.388 41.2658 179.71 39.9691C179.051 38.6526 178.722 37.1465 178.722 35.4509ZM191.768 35.5107C191.768 34.4934 191.569 33.6256 191.17 32.9075C190.771 32.1694 190.232 31.6108 189.554 31.2318C188.876 30.8329 188.148 30.6334 187.37 30.6334C186.592 30.6334 185.874 30.8229 185.215 31.2019C184.557 31.5809 184.019 32.1395 183.6 32.8776C183.201 33.5957 183.001 34.4535 183.001 35.4509C183.001 36.4483 183.201 37.326 183.6 38.084C184.019 38.8221 184.557 39.3906 185.215 39.7896C185.894 40.1886 186.612 40.3881 187.37 40.3881C188.148 40.3881 188.876 40.1985 189.554 39.8195C190.232 39.4206 190.771 38.862 191.17 38.1439C191.569 37.4058 191.768 36.5281 191.768 35.5107Z" fill="white"/>
<path d="M57.5514 44.3078C55.1681 44.3078 54.1118 43.3869 52.6222 42.0869C50.9702 40.6786 48.9119 38.8911 45.0389 38.8911C41.1389 38.8911 39.1076 40.6786 37.4556 42.0869C35.966 43.3869 34.8827 44.3078 32.4993 44.3078C30.1431 44.3078 29.0597 43.3869 27.5702 42.0869C25.9181 40.6786 23.8598 38.8911 19.9869 38.8911C16.0869 38.8911 14.0285 40.6786 12.3765 42.0869C10.8869 43.3869 9.8306 44.3078 7.44727 44.3078C6.33685 44.3078 5.41602 45.2286 5.41602 46.339C5.41602 47.4765 6.33685 48.3703 7.44727 48.3703C11.3473 48.3703 13.3785 46.6099 15.0306 45.1744C16.5201 43.8744 17.6035 42.9536 19.9869 42.9536C22.3702 42.9536 23.4265 43.8744 24.916 45.1744C26.5681 46.6099 28.6264 48.3703 32.4993 48.3703C36.3993 48.3703 38.4577 46.6099 40.1098 45.1744C41.5993 43.8744 42.6556 42.9536 45.0389 42.9536C47.3952 42.9536 48.4785 43.8744 49.9681 45.1744C51.6202 46.6099 53.6785 48.3703 57.5514 48.3703C58.6618 48.3703 59.5827 47.4765 59.5827 46.339C59.5827 45.2286 58.6618 44.3078 57.5514 44.3078Z" fill="white"/>
<path d="M57.5514 33.1504C55.1681 33.1504 54.1118 32.2025 52.6222 30.9296C50.9702 29.4942 48.9119 27.7338 45.0389 27.7338C41.1389 27.7338 39.1076 29.4942 37.4556 30.9296C35.966 32.2025 34.8827 33.1504 32.4993 33.1504C30.1431 33.1504 29.0597 32.2025 27.5702 30.9296C25.9181 29.4942 23.8598 27.7338 19.9869 27.7338C16.0869 27.7338 14.0285 29.4942 12.3765 30.9296C10.8869 32.2025 9.8306 33.1504 7.44727 33.1504C6.33685 33.1504 5.41602 34.0442 5.41602 35.1817C5.41602 36.2921 6.33685 37.2129 7.44727 37.2129C11.3473 37.2129 13.3785 35.4254 15.0306 33.99C16.5201 32.7171 17.6035 31.7963 19.9869 31.7963C22.3702 31.7963 23.4265 32.7171 24.916 33.99C26.5681 35.4254 28.6264 37.2129 32.4993 37.2129C36.3993 37.2129 38.4577 35.4254 40.1098 33.99C41.5993 32.7171 42.6556 31.7963 45.0389 31.7963C47.3952 31.7963 48.4785 32.7171 49.9681 33.99C51.6202 35.4254 53.6785 37.2129 57.5514 37.2129C58.6618 37.2129 59.5827 36.2921 59.5827 35.1817C59.5827 34.0442 58.6618 33.1504 57.5514 33.1504Z" fill="white"/>
<path d="M7.44727 26.1087C11.3473 26.1087 13.3785 24.3212 15.0306 22.9129C16.5201 21.6129 17.6035 20.692 19.9869 20.692C22.3702 20.692 23.4265 21.6129 24.916 22.9129C26.5681 24.3212 28.6264 26.1087 32.4993 26.1087C36.3993 26.1087 38.4577 24.3212 40.1098 22.9129C41.5993 21.6129 42.6556 20.692 45.0389 20.692C47.3952 20.692 48.4785 21.6129 49.9681 22.9129C51.6202 24.3212 53.6785 26.1087 57.5514 26.1087C58.6618 26.1087 59.5827 25.1879 59.5827 24.0774C59.5827 22.9399 58.6618 22.0462 57.5514 22.0462C55.1681 22.0462 54.1118 21.1254 52.6222 19.8254C50.9702 18.3899 48.9119 16.6295 45.0389 16.6295C41.1389 16.6295 39.1076 18.3899 37.4556 19.8254C35.966 21.1254 34.8827 22.0462 32.4993 22.0462C30.1431 22.0462 29.0597 21.1254 27.5702 19.8254C25.9181 18.3899 23.8598 16.6295 19.9869 16.6295C16.0869 16.6295 14.0285 18.3899 12.3765 19.8254C10.8869 21.1254 9.8306 22.0462 7.44727 22.0462C6.33685 22.0462 5.41602 22.9399 5.41602 24.0774C5.41602 25.1879 6.33685 26.1087 7.44727 26.1087Z" fill="white"/>
</svg>
