<svg width="22" height="21" viewBox="0 0 22 21" fill="none" xmlns="http://www.w3.org/2000/svg">
<path fill-rule="evenodd" clip-rule="evenodd" d="M21.633 12.4812V20.3603H17.032V12.9988C17.032 11.1584 16.3994 9.89316 14.7315 9.89316C13.4663 9.89316 12.7186 10.7558 12.3735 11.561C12.2585 11.8486 12.201 12.2512 12.201 12.6537V20.3603H7.60001C7.60001 20.3603 7.65752 7.88025 7.60001 6.61499H12.201V8.57039C12.201 8.57039 12.201 8.62789 12.1435 8.62789H12.201V8.57039C12.8336 7.6502 13.8689 6.26991 16.3419 6.26991C19.3325 6.26991 21.633 8.28283 21.633 12.4812ZM2.88347 0.00109863C1.33063 0.00109863 0.29541 1.03631 0.29541 2.35909C0.29541 3.68186 1.27312 4.71709 2.82595 4.71709H2.88347C4.49381 4.71709 5.47152 3.68187 5.47152 2.35909C5.41401 1.03631 4.4363 0.00109863 2.88347 0.00109863ZM0.526056 20.3604H5.06954V6.61501H0.526056V20.3604Z" fill="#535353"/>
</svg>
